<?xml version="1.0" encoding="UTF-8"?>
<svg version="1.1" xmlns="http://www.w3.org/2000/svg" width="512" height="512">
<path d="M0 0 C1.34275246 -0.01469078 1.34275246 -0.01469078 2.71263123 -0.02967834 C22.32122464 -0.19995566 41.28714451 -0.10421492 60.5078125 4.23828125 C61.97154297 4.55974121 61.97154297 4.55974121 63.46484375 4.88769531 C97.2873358 12.50108065 129.4823129 27.44114805 156.5078125 49.23828125 C157.03084961 49.65980469 157.55388672 50.08132813 158.09277344 50.515625 C172.13582099 61.93542796 185.65704553 74.70823123 196.5078125 89.23828125 C197.10384277 90.03564697 197.10384277 90.03564697 197.71191406 90.84912109 C222.44852837 124.1571716 237.43372781 161.2577968 243.5078125 202.23828125 C243.70117188 203.50542969 243.89453125 204.77257812 244.09375 206.078125 C244.78082647 211.85851325 244.77164873 217.67458253 244.8203125 223.48828125 C244.84931641 224.65875 244.87832031 225.82921875 244.90820312 227.03515625 C244.91658203 228.15921875 244.92496094 229.28328125 244.93359375 230.44140625 C244.95546753 231.96749512 244.95546753 231.96749512 244.9777832 233.52441406 C244.35961852 237.09403413 243.38086681 238.05118116 240.5078125 240.23828125 C237.8356764 240.63048559 235.57557535 240.77638041 232.90527344 240.74164581 C232.13195805 240.74745958 231.35864265 240.75327334 230.56189346 240.75926328 C227.95501231 240.77393109 225.34906273 240.7599469 222.7421875 240.74621582 C220.86067216 240.75082206 218.97916042 240.75717311 217.09765625 240.7651248 C211.91520114 240.78187925 206.73303928 240.77354402 201.55058289 240.76117992 C195.96631852 240.75215672 190.38210578 240.76608557 184.79785156 240.77709961 C173.85349202 240.79491865 162.90924198 240.79102978 151.96487808 240.77944905 C143.07293039 240.7704283 134.18101346 240.76918483 125.2890625 240.77354431 C124.02519463 240.77415724 122.76132675 240.77477018 121.45915985 240.77540168 C118.8919169 240.77668054 116.32467396 240.77797739 113.75743103 240.77929205 C90.35191788 240.79038211 66.94647509 240.77886664 43.54097557 240.75792166 C22.16530583 240.7389386 0.7897314 240.74063709 -20.5859375 240.75976562 C-44.5904696 240.78117476 -68.59494211 240.78960904 -92.5994873 240.77731657 C-95.15747069 240.77604233 -97.71545409 240.77478484 -100.2734375 240.77354431 C-102.16147472 240.77261866 -102.16147472 240.77261866 -104.08765411 240.77167431 C-112.97251156 240.76821555 -121.85733528 240.77406105 -130.7421875 240.78346252 C-141.56472134 240.79466223 -152.38713909 240.79168523 -163.20965958 240.77033955 C-168.73517499 240.75980181 -174.26049661 240.7557536 -179.78601074 240.76893616 C-184.83908478 240.78080957 -189.8917844 240.77438131 -194.94482422 240.75302595 C-196.77786893 240.74853837 -198.61094495 240.75087409 -200.44396973 240.7605291 C-202.92631913 240.77260656 -205.40736818 240.76030753 -207.88964844 240.74164581 C-208.96954355 240.75569281 -208.96954355 240.75569281 -210.07125473 240.77002358 C-213.46480328 240.71865854 -215.21087806 240.45474357 -217.93499756 238.35858488 C-219.85657289 235.74212619 -220.00731062 234.30132199 -220.0234375 231.07421875 C-220.03165527 230.0478833 -220.03987305 229.02154785 -220.04833984 227.96411133 C-220.02980957 226.8583374 -220.0112793 225.75256348 -219.9921875 224.61328125 C-219.98010254 223.46045654 -219.96801758 222.30763184 -219.95556641 221.11987305 C-218.88574687 173.3637772 -200.26732637 125.37939525 -170.4921875 88.23828125 C-169.71101563 87.2534375 -168.92984375 86.26859375 -168.125 85.25390625 C-157.12898673 71.68526495 -144.52456284 58.67104726 -130.4921875 48.23828125 C-129.96206055 47.84237793 -129.43193359 47.44647461 -128.88574219 47.03857422 C-92.0031899 19.64461017 -46.49280324 0.42012158 0 0 Z " fill="#1B2C3D" transform="translate(243.4921875,247.76171875)"/>
<path d="M0 0 C-5.79184551 17.02250471 -12.12457729 33.83819285 -18.47167969 50.65917969 C-19.96711184 54.6226719 -21.45738433 58.5880828 -22.94635391 62.55400658 C-24.10567481 65.63985415 -25.26800239 68.72456258 -26.43120575 71.80894852 C-26.98237741 73.27171865 -27.53255233 74.73486479 -28.08167267 76.19840622 C-28.8459392 78.23420646 -29.61434034 80.26839983 -30.38378906 82.30224609 C-30.817901 83.45437592 -31.25201294 84.60650574 -31.69927979 85.79354858 C-32.99406665 88.98537348 -34.26350318 92.02250141 -36 95 C-38.71531817 96.07889445 -40.99745278 96.76763224 -43.8125 97.375 C-61.88352891 102.02968808 -75.87172827 113.019955 -86.02734375 128.5390625 C-91.45312032 138.05834575 -94.01767102 147.09719059 -96 158 C-128.01 158 -160.02 158 -193 158 C-191.83630498 142.87196468 -191.83630498 142.87196468 -190.625 136.4375 C-190.42438965 135.353479 -190.42438965 135.353479 -190.21972656 134.24755859 C-189.82576009 132.16231721 -189.41708623 130.08072719 -189 128 C-188.79632813 126.98292969 -188.59265625 125.96585937 -188.3828125 124.91796875 C-179.10359262 83.9633872 -151.66570865 47.24710382 -116.67285156 24.48632812 C-100.42290729 14.32758339 -83.53568766 6.8157407 -65 2 C-64.18660156 1.77699219 -63.37320313 1.55398438 -62.53515625 1.32421875 C-42.60896056 -3.68601471 -20.08787314 -3.77612433 0 0 Z " fill="#526781" transform="translate(281,314)"/>
<path d="M0 0 C6.0458504 1.84668459 11.61878349 4.07318662 17.1875 7.0625 C17.91727051 7.45244141 18.64704102 7.84238281 19.39892578 8.24414062 C26.71371642 12.24588301 33.40086463 16.92167008 40 22 C40.91910156 22.69480469 41.83820313 23.38960938 42.78515625 24.10546875 C77.93829182 51.6999036 99.21331581 91.64497573 105.66796875 135.515625 C106.0628716 139.65978193 106 143.83707016 106 148 C73.99 148 41.98 148 9 148 C7.68 142.06 6.36 136.12 5 130 C0.19804108 119.38514344 -5.92413236 108.7215232 -15.69165039 101.80151367 C-17.42746856 99.41140315 -17.07446075 97.68206907 -16.68637085 94.83995056 C-16.57588409 94.16186844 -16.46539734 93.48378632 -16.3515625 92.78515625 C-16.24840729 92.07319595 -16.14525208 91.36123566 -16.03897095 90.62770081 C-15.71197723 88.41497821 -15.35966236 86.20762762 -15 84 C-14.79858398 82.73526855 -14.59716797 81.47053711 -14.38964844 80.16748047 C-13.74360518 76.25282688 -13.0638112 72.34478055 -12.375 68.4375 C-11.98465864 66.20011753 -11.59563577 63.96250847 -11.20677185 61.72486877 C-10.92801282 60.12082484 -10.64883985 58.5168528 -10.36927795 56.91294861 C-9.17716089 50.06046559 -8.01743614 43.20271756 -6.86328125 36.34375 C-6.49890372 34.18301683 -6.13448325 32.0222909 -5.77001953 29.86157227 C-5.22917299 26.65479513 -4.68923758 23.44787922 -4.15228271 20.240448 C-3.6499923 17.24183335 -3.14376299 14.24390766 -2.63671875 11.24609375 C-2.48592361 10.33939941 -2.33512848 9.43270508 -2.17976379 8.49853516 C-2.03882797 7.66942627 -1.89789215 6.84031738 -1.75268555 5.98608398 C-1.63088425 5.26114243 -1.50908295 4.53620087 -1.3835907 3.78929138 C-1 2 -1 2 0 0 Z " fill="#526781" transform="translate(318,324)"/>
<path d="M0 0 C2.00781606 -0.00433654 4.01547604 -0.0412558 6.02294922 -0.07861328 C19.27304275 -0.1181658 28.62227864 3.11971686 38.28076172 12.11279297 C45.27299354 19.36065477 49.01204173 28.62316442 49.47216797 38.65966797 C49.21241213 49.92657765 45.46201213 60.34851029 37.78466797 68.74560547 C29.78664991 76.15576147 20.3326432 79.52008767 9.64784241 79.51777649 C8.74155277 79.52145318 7.83526314 79.52512987 6.90151018 79.52891797 C3.85222181 79.53996729 0.80296751 79.54380072 -2.24633789 79.54760742 C-4.42745574 79.55387096 -6.60857251 79.56051766 -8.78968811 79.56752014 C-14.72347038 79.58493608 -20.6572446 79.59548281 -26.59104609 79.60372567 C-30.29523722 79.60887291 -33.99942583 79.61494866 -37.70361519 79.6212368 C-49.28468239 79.64028764 -60.8657432 79.65452091 -72.44682306 79.66284877 C-84.49951987 79.67165821 -96.55208989 79.69082525 -108.60473633 79.72729492 C-120.27339036 79.76248778 -131.94196461 79.783885 -143.61067301 79.78762978 C-149.7890606 79.78998553 -155.96727201 79.79901448 -162.14561272 79.82409096 C-167.95438183 79.84728706 -173.76285767 79.85163907 -179.571661 79.84132957 C-181.7066317 79.84083209 -183.84161644 79.84721459 -185.97654343 79.86088562 C-188.88522608 79.87847338 -191.7928411 79.87156329 -194.70152283 79.85835266 C-195.55161562 79.86932191 -196.40170842 79.88029115 -197.2775616 79.8915928 C-200.96545408 79.85099198 -203.1238325 79.72301825 -206.11267948 77.46512127 C-207.71170124 75.19856927 -208.13320694 74.11459951 -208.09033203 71.37060547 C-208.10580078 70.38060547 -208.10580078 70.38060547 -208.12158203 69.37060547 C-207.31593756 66.33759098 -206.08795813 65.27655721 -203.59033203 63.37060547 C-200.63038714 62.97874321 -198.04285848 62.83178575 -195.08357239 62.86508179 C-193.783276 62.85594661 -193.783276 62.85594661 -192.45671099 62.84662688 C-189.54630889 62.83098674 -186.63672504 62.84383151 -183.72631836 62.85644531 C-181.64183025 62.85098627 -179.55734616 62.8437459 -177.47286987 62.83485413 C-172.98043313 62.81949598 -168.48822484 62.81672388 -163.99576759 62.82361984 C-156.88964004 62.83439116 -149.78375179 62.81704088 -142.67765808 62.79580688 C-131.4333076 62.76551851 -120.18902775 62.75384988 -108.94463986 62.75023043 C-88.82254559 62.74359112 -68.7005007 62.71453945 -48.57846659 62.66513407 C-41.51764218 62.6486509 -34.45692049 62.64321671 -27.39607871 62.64672446 C-22.99691417 62.64716232 -18.5977882 62.63958449 -14.1986351 62.63004875 C-12.16252867 62.62737179 -10.12641437 62.62810777 -8.09031105 62.63255882 C-5.30411263 62.638227 -2.5181922 62.63162304 0.26799011 62.62216187 C1.06781805 62.62682508 1.86764598 62.63148829 2.69171113 62.63629282 C10.93997592 62.58185697 18.19526045 61.46091602 24.68310547 56.13623047 C28.87012069 51.8544864 31.01626445 46.49008372 31.51123047 40.51513672 C31.25593521 35.12447905 29.44712637 30.23803059 26.84716797 25.55810547 C19.55747655 19.01607471 12.00883841 17.60006163 2.47216797 17.87060547 C1.44542969 17.86802734 0.41869141 17.86544922 -0.63916016 17.86279297 C-5.82544756 17.70284423 -5.82544756 17.70284423 -10.4206543 19.66943359 C-11.96883937 21.53599299 -11.96883937 21.53599299 -11.27783203 25.05810547 C-11.05095703 26.15123047 -10.82408203 27.24435547 -10.59033203 28.37060547 C-5.28663008 31.04924282 0.09941056 30.72393313 5.90380859 30.76123047 C11.83832483 30.93852722 11.83832483 30.93852722 14.90966797 33.26123047 C16.71777499 35.80388097 17.33511008 37.23917421 17.40966797 40.37060547 C15.13255954 46.00915969 15.13255954 46.00915969 12.40966797 47.37060547 C8.37433229 47.66883364 4.32971937 47.64878659 0.28466797 47.68310547 C-0.83166016 47.71210938 -1.94798828 47.74111328 -3.09814453 47.77099609 C-11.18953063 47.83301733 -16.68845862 46.78984297 -22.83251953 41.40576172 C-23.37134766 40.75478516 -23.91017578 40.10380859 -24.46533203 39.43310547 C-25.01962891 38.78470703 -25.57392578 38.13630859 -26.14501953 37.46826172 C-30.44987894 31.2203982 -30.28473609 24.71526383 -29.59033203 17.37060547 C-27.8645356 10.71864327 -23.13415653 6.19037281 -17.59033203 2.37060547 C-11.8894651 -0.38210064 -6.21788974 -0.00150009 0 0 Z " fill="#192B3C" transform="translate(415.59033203125,80.62939453125)"/>
<path d="M0 0 C2.00781606 -0.00433654 4.01547604 -0.0412558 6.02294922 -0.07861328 C19.85312156 -0.11989738 29.24068854 3.47514097 39.15966797 13.06201172 C47.60758986 22.16464756 48.97969924 32.79537325 48.74169922 44.74560547 C48.24836909 54.71777665 43.69661791 62.10709236 36.87841797 69.17529297 C28.84487642 76.31904352 20.63209706 79.68059501 9.89450073 79.63803101 C8.62922662 79.64482768 8.62922662 79.64482768 7.33839142 79.65176165 C4.51948349 79.66439509 1.70076901 79.66278599 -1.11816406 79.66113281 C-3.14209237 79.66711849 -5.16601839 79.67392413 -7.18994141 79.68148804 C-12.68142731 79.69914563 -18.17285088 79.70384316 -23.66436243 79.70511961 C-28.24723846 79.70701929 -32.83009998 79.71437715 -37.41297042 79.7214638 C-48.2206336 79.73774247 -59.02826347 79.74263302 -69.8359375 79.74121094 C-80.993451 79.74000786 -92.15077159 79.76114412 -103.30823624 79.79269826 C-112.88457054 79.81881803 -122.46084163 79.82958013 -132.0372113 79.82830012 C-137.75835765 79.82778946 -143.47933234 79.83353074 -149.20044327 79.85465622 C-154.57672531 79.87396757 -159.95267057 79.87421189 -165.32896423 79.85962296 C-167.30428939 79.8575253 -169.27963526 79.86229233 -171.25492477 79.87434387 C-173.94672759 79.88970652 -176.63735583 79.88054846 -179.32913208 79.86508179 C-180.11492334 79.87536891 -180.90071461 79.88565604 -181.71031773 79.8962549 C-185.26549481 79.85095551 -187.21263285 79.66050613 -190.0734539 77.4647007 C-191.71712325 75.19556643 -192.13359649 74.13953112 -192.09033203 71.37060547 C-192.10580078 70.38060547 -192.10580078 70.38060547 -192.12158203 69.37060547 C-191.32262544 66.3627689 -190.04762141 65.27470861 -187.59033203 63.37060547 C-184.824133 62.97856987 -182.4556937 62.83138866 -179.69099426 62.86508179 C-178.48870313 62.85594661 -178.48870313 62.85594661 -177.26212329 62.84662688 C-174.57281108 62.83099476 -171.88438542 62.84382804 -169.19506836 62.85644531 C-167.26821329 62.85098588 -165.34136256 62.84374527 -163.41452026 62.83485413 C-159.26257262 62.81949895 -155.11087216 62.81672263 -150.95890236 62.82361984 C-144.39044645 62.8343944 -137.82224927 62.81703693 -131.25382996 62.79580688 C-120.85946178 62.76552115 -110.46517002 62.75385018 -100.07076138 62.75023043 C-81.47178118 62.74359116 -62.87285446 62.71452331 -44.27393931 62.66513407 C-37.74833748 62.64865785 -31.22284678 62.64321537 -24.69722617 62.64672446 C-20.63020344 62.64716255 -16.56322237 62.63958103 -12.49621201 62.63004875 C-10.61491121 62.62737348 -8.73360189 62.62810486 -6.85230446 62.63255882 C-4.27629325 62.63823396 -1.7005819 62.63161547 0.87541199 62.62216187 C1.61298475 62.62682508 2.35055751 62.63148829 3.11048096 62.63629282 C12.19817179 62.57155317 19.8623194 60.9770723 26.40966797 54.37060547 C30.67287148 49.09864395 31.15545549 43.24931942 30.90966797 36.62841797 C30.09705877 31.33376113 28.27227412 27.11456502 24.40966797 23.37060547 C17.26751757 18.55955578 10.94105219 17.63035343 2.47216797 17.87060547 C1.44542969 17.86802734 0.41869141 17.86544922 -0.63916016 17.86279297 C-5.82544756 17.70284423 -5.82544756 17.70284423 -10.4206543 19.66943359 C-11.96883937 21.53599299 -11.96883937 21.53599299 -11.27783203 25.05810547 C-11.05095703 26.15123047 -10.82408203 27.24435547 -10.59033203 28.37060547 C-5.28663008 31.04924282 0.09941056 30.72393313 5.90380859 30.76123047 C11.79756652 30.93730954 11.79756652 30.93730954 14.93701172 33.15966797 C16.48785266 35.4879862 16.95285942 36.60635261 16.90966797 39.37060547 C16.92513672 40.36060547 16.92513672 40.36060547 16.94091797 41.37060547 C16.16513164 44.29121283 14.72312896 45.46402479 12.40966797 47.37060547 C9.78759766 47.88818359 9.78759766 47.88818359 6.83154297 47.90185547 C5.213125 47.90958984 5.213125 47.90958984 3.56201172 47.91748047 C2.43923828 47.90201172 1.31646484 47.88654297 0.15966797 47.87060547 C-0.94763672 47.88607422 -2.05494141 47.90154297 -3.19580078 47.91748047 C-11.53943421 47.87779612 -16.78195657 46.48654903 -23.34033203 41.12060547 C-28.76817744 34.48657219 -30.28525493 29.14570647 -29.96533203 20.48779297 C-29.04775794 12.86045834 -25.40192525 8.7005957 -19.68798828 3.81591797 C-13.52285389 -0.43193999 -7.24344114 -0.00174751 0 0 Z " fill="#1A2B3C" transform="translate(303.59033203125,24.62939453125)"/>
<path d="M0 0 C0.77082586 -0.00694553 1.54165172 -0.01389106 2.33583593 -0.02104706 C4.92140904 -0.03935768 7.50606876 -0.02904154 10.0916748 -0.01878357 C11.94469897 -0.02584043 13.79771738 -0.03458446 15.65072632 -0.04489136 C20.68841869 -0.06743257 25.72579754 -0.06443288 30.76352119 -0.05556989 C34.97275855 -0.05046257 39.18193685 -0.05775128 43.39116812 -0.06504196 C53.32947529 -0.08205921 63.26762903 -0.07846054 73.20593262 -0.06175232 C83.44196632 -0.04486521 93.67757251 -0.06061443 103.91355944 -0.0929752 C112.71038984 -0.11972765 121.50708763 -0.12693077 130.3039546 -0.11846012 C135.55369 -0.11354294 140.80316877 -0.1156796 146.0528717 -0.13624763 C150.9975298 -0.15469098 155.94157785 -0.14854071 160.88620377 -0.12404823 C162.69367803 -0.11906591 164.50119943 -0.12246252 166.30863571 -0.13519669 C180.57698275 -0.2277077 191.50488563 1.73749066 202.19128418 12.0459137 C209.87339747 20.68487384 213.2179165 30.04441141 213.38659668 41.5146637 C212.67139838 52.63997057 207.95547019 63.1621243 199.73815918 70.76075745 C189.70225198 78.24601049 180.86935338 79.739017 168.70690918 79.80982971 C167.33375729 79.82132662 165.96064929 79.84174264 164.58776855 79.87135315 C155.14418707 80.0747219 148.4732185 79.97210407 141.14440918 73.54981995 C140.60558105 72.89884338 140.06675293 72.24786682 139.51159668 71.5771637 C138.68015137 70.60456604 138.68015137 70.60456604 137.83190918 69.61231995 C133.52704977 63.36445643 133.69219262 56.85932206 134.38659668 49.5146637 C136.11239311 42.8627015 140.84277218 38.33443104 146.38659668 34.5146637 C152.13880541 31.8020588 157.6989538 32.14677826 163.94909668 32.1396637 C165.08540527 32.11517151 166.22171387 32.09067932 167.39245605 32.06544495 C168.48493652 32.06157776 169.57741699 32.05771057 170.70300293 32.0537262 C172.19489136 32.04139954 172.19489136 32.04139954 173.71691895 32.02882385 C177.10635952 32.64564934 178.25715751 33.86484417 180.38659668 36.5146637 C181.76408722 40.0043064 181.49774497 41.23943936 180.07409668 44.7646637 C178.38659668 47.5146637 178.38659668 47.5146637 176.38659668 48.5146637 C172.63289533 48.74811205 168.88539322 48.90925615 165.12683105 49.03224182 C160.80851254 49.21968726 157.3271388 49.54039614 153.38659668 51.5146637 C152.62136867 54.86924524 152.62136867 54.86924524 152.38659668 58.5146637 C153.48759327 60.32493747 153.48759327 60.32493747 155.38659668 61.5146637 C159.03973843 62.18360906 162.74155874 62.02397327 166.44909668 62.0146637 C167.44876465 62.04302307 168.44843262 62.07138245 169.47839355 62.1006012 C177.31848696 62.12097831 184.25190938 60.4249286 190.0958252 54.89820862 C194.03104379 50.29905679 195.19945237 44.43818807 195.38659668 38.5146637 C194.47357918 31.96352783 192.20879557 27.01538266 187.38659668 22.5146637 C180.53425767 18.11161115 173.86879506 17.3627678 165.82052612 17.38336182 C165.07909886 17.3812461 164.3376716 17.37913039 163.57377684 17.37695056 C161.10039836 17.37098019 158.62707132 17.37194857 156.15368652 17.37281799 C154.37606215 17.36978467 152.59843856 17.36626273 150.82081604 17.36228943 C146.99854827 17.35441569 143.17628977 17.34926138 139.35401535 17.34599876 C133.31191918 17.34008059 127.26988164 17.32353441 121.22781372 17.30465698 C119.15839962 17.29832023 117.08898548 17.2919946 115.0195713 17.28567982 C113.98347512 17.28251401 112.94737895 17.27934819 111.87988591 17.27608645 C97.81670333 17.23401182 83.75354901 17.20100975 69.69030762 17.18873596 C60.1980965 17.18036656 50.70603153 17.15792231 41.21389353 17.1193803 C36.19139911 17.09959096 31.16912329 17.08722481 26.14658737 17.09221458 C21.426868 17.09684696 16.70756399 17.08313329 11.98792839 17.05520248 C10.25450567 17.04826837 8.52104021 17.0481879 6.78761864 17.05540276 C4.42414729 17.06424807 2.06205867 17.04866984 -0.30130005 17.0269165 C-0.98981761 17.03535904 -1.67833516 17.04380158 -2.38771689 17.05249995 C-5.73685558 16.99535357 -7.37066862 16.70564409 -10.03720665 14.6076479 C-11.74843161 12.33536369 -12.15725658 11.3212722 -12.11340332 8.5146637 C-12.12887207 7.5246637 -12.12887207 7.5246637 -12.14465332 6.5146637 C-10.49258591 0.29511578 -5.57362482 -0.06384233 0 0 Z " fill="#192B3C" transform="translate(275.6134033203125,199.48533630371094)"/>
<path d="M0 0 C13.22122163 8.14552837 22.90084465 19.76313962 27 35 C27 36.98 27 38.96 27 41 C-9.3 41 -45.6 41 -83 41 C-82.22225593 34.00030337 -81.49165482 29.84167233 -78.375 23.9375 C-77.8332312 22.89335937 -77.8332312 22.89335937 -77.28051758 21.828125 C-69.61476395 7.48238285 -56.91867318 -1.01316897 -41.66015625 -6.1171875 C-27.56149277 -9.51771893 -12.70944044 -6.48608394 0 0 Z " fill="#D1DAE3" transform="translate(284,431)"/>
<path d="M0 0 C9.36609416 4.44758661 18.17563712 9.57518676 27 15 C26.42541291 20.36562941 24.53593347 24.51240447 22.25 29.3125 C18.25085824 38.01677726 15.36514034 46.73070246 13 56 C12.55527344 57.66675781 12.55527344 57.66675781 12.1015625 59.3671875 C9.42353813 70.4239812 8.86561687 81.68039483 8 93 C-2.89 93 -13.78 93 -25 93 C-25 61.21310013 -16.29444972 27.44596374 0 0 Z " fill="#EAAC64" transform="translate(65,379)"/>
<path d="M0 0 C3.25627624 3.25627624 4.91329413 6.5164857 6.8125 10.625 C7.1636084 11.38353271 7.5147168 12.14206543 7.87646484 12.92358398 C19.21867371 37.89244752 26 65.552759 26 93 C15.44 93 4.88 93 -6 93 C-6.66 88.05 -7.32 83.1 -8 78 C-10.56784435 59.30484055 -15.30061684 41.88330801 -23.10400391 24.6628418 C-23.66740479 23.41821167 -23.66740479 23.41821167 -24.2421875 22.1484375 C-24.5810498 21.41802246 -24.91991211 20.68760742 -25.26904297 19.93505859 C-26 18 -26 18 -26 15 C-17.42 10.05 -8.84 5.1 0 0 Z " fill="#D65263" transform="translate(446,379)"/>
<path d="M0 0 C0 10.89 0 21.78 0 33 C-4.9190625 33.309375 -4.9190625 33.309375 -9.9375 33.625 C-31.43243092 35.36043301 -50.83882205 41.48427566 -70.53417969 50.0637207 C-73.0152551 51.00579241 -75.38767058 51.55672218 -78 52 C-80.12662458 48.25091908 -82.25101682 44.5005779 -84.375 40.75 C-84.97828125 39.68652344 -85.5815625 38.62304688 -86.203125 37.52734375 C-86.78320312 36.50253906 -87.36328125 35.47773438 -87.9609375 34.421875 C-88.49509277 33.47924805 -89.02924805 32.53662109 -89.57958984 31.56542969 C-90.77841682 29.40020558 -91.9154287 27.2240576 -93 25 C-69.93662027 13.05917002 -46.36590101 4.86147356 -20.5625 1.25 C-19.66345947 1.12230225 -18.76441895 0.99460449 -17.83813477 0.86303711 C-16.96471436 0.74839111 -16.09129395 0.63374512 -15.19140625 0.515625 C-14.04973999 0.36528809 -14.04973999 0.36528809 -12.88500977 0.21191406 C-8.60096722 -0.10276385 -4.29558409 0 0 0 Z " fill="#77B04B" transform="translate(248,264)"/>
<path d="M0 0 C10.77926273 1.87685986 20.99742729 12.93755026 29 20 C29.92296875 20.81082031 30.8459375 21.62164062 31.796875 22.45703125 C42.57403784 32.04217456 51.54337762 42.48826598 60.375 53.875 C60.79177002 54.41012207 61.20854004 54.94524414 61.63793945 55.49658203 C68.0682418 63.85977534 68.0682418 63.85977534 67.88354492 66.94580078 C66.60669358 69.91441841 64.8058633 70.66585099 62.01171875 72.234375 C60.99529297 72.80800781 59.97886719 73.38164062 58.93164062 73.97265625 C57.86107422 74.55917969 56.79050781 75.14570313 55.6875 75.75 C54.62853516 76.35199219 53.56957031 76.95398438 52.47851562 77.57421875 C44.53519168 82 44.53519168 82 40 82 C38.27176833 79.92309001 36.83459319 77.94157003 35.375 75.6875 C31.39223152 69.81870562 27.17215494 64.63558451 22.30859375 59.4609375 C20.25781689 57.27483019 18.30879725 55.0389845 16.375 52.75 C7.54390981 42.65148483 -4.04889428 34.64030632 -15 27 C-10.55241339 17.63390584 -5.42481324 8.82436288 0 0 Z " fill="#DF6576" transform="translate(370,298)"/>
<path d="M0 0 C4.76812532 1.98132883 7.01487023 8.40068936 9.48071289 12.6875 C10.1471582 13.79416016 10.81360352 14.90082031 11.50024414 16.04101562 C12.43030273 17.63913086 12.43030273 17.63913086 13.37915039 19.26953125 C13.95068848 20.24768799 14.52222656 21.22584473 15.11108398 22.23364258 C16.10571289 24.875 16.10571289 24.875 15.45336914 27.08837891 C13.37067333 29.84946006 10.57783731 31.54929104 7.73071289 33.4375 C1.57996139 37.66161554 -3.87943204 42.29191475 -9.28491211 47.421875 C-11.33156455 49.3459734 -13.39007907 51.12565505 -15.58178711 52.875 C-25.20470634 61.06373416 -32.40684665 72.77772411 -39.89428711 82.875 C-49.23176416 78.44758414 -58.03149764 73.17005403 -66.89428711 67.875 C-63.03222131 49.86087682 -39.8595061 29.0762694 -25.89428711 17.875 C-24.72744153 16.91948928 -23.56079521 15.96373519 -22.39428711 15.0078125 C-3.67598319 -0.24257036 -3.67598319 -0.24257036 0 0 Z " fill="#D58751" transform="translate(140.894287109375,298.125)"/>
<path d="M0 0 C0.65396381 -0.00623996 1.30792763 -0.01247993 1.98170853 -0.01890898 C4.17144147 -0.03485478 6.36006364 -0.02222988 8.54980469 -0.00964355 C10.12024586 -0.01506402 11.69068195 -0.02218626 13.2611084 -0.03088379 C17.52559358 -0.04912925 21.78969196 -0.0420447 26.05418396 -0.02936745 C30.51529998 -0.01924606 34.9763827 -0.02863072 39.4375 -0.03491211 C46.92942252 -0.04219104 54.42118735 -0.03259441 61.91308594 -0.0135498 C70.57692221 0.00821946 79.24038198 0.00116826 87.90420914 -0.02085543 C95.34041697 -0.03900247 102.7765114 -0.04157117 110.21273422 -0.03110075 C114.65510989 -0.02486197 119.09730853 -0.02404068 123.53967285 -0.0372467 C127.71602519 -0.04879453 131.89189172 -0.04079938 136.06819153 -0.01766968 C137.6016611 -0.01237682 139.1351715 -0.01390626 140.66862488 -0.02272034 C142.76075646 -0.03363768 144.8513275 -0.01996166 146.94335938 0 C148.11437195 0.0015081 149.28538452 0.0030162 150.49188232 0.00457001 C154.08917438 0.61224534 155.26270263 1.66274731 157.47167969 4.50793457 C158.00292969 6.50793457 158.00292969 6.50793457 157.97167969 8.50793457 C157.98714844 9.49793457 157.98714844 9.49793457 158.00292969 10.50793457 C157.21810175 13.46258094 155.84242519 14.60445759 153.47167969 16.50793457 C150.49188232 17.01129913 150.49188232 17.01129913 146.94335938 17.01586914 C146.28939556 17.0221091 145.63543175 17.02834907 144.96165085 17.03477812 C142.7719179 17.05072392 140.58329574 17.03809902 138.39355469 17.0255127 C136.82311351 17.03093316 135.25267742 17.0380554 133.68225098 17.04675293 C129.4177658 17.0649984 125.15366741 17.05791384 120.88917542 17.04523659 C116.4280594 17.0351152 111.96697668 17.04449987 107.50585938 17.05078125 C100.01393686 17.05806018 92.52217202 17.04846355 85.03027344 17.02941895 C76.36643716 17.00764968 67.70297739 17.01470089 59.03915024 17.03672457 C51.60294241 17.05487161 44.16684797 17.05744031 36.73062515 17.04696989 C32.28824949 17.04073111 27.84605084 17.03990982 23.40368652 17.05311584 C19.22733419 17.06466367 15.05146765 17.05666852 10.87516785 17.03353882 C9.34169827 17.02824596 7.80818787 17.0297754 6.2747345 17.03858948 C4.18260291 17.04950682 2.09203188 17.0358308 0 17.01586914 C-1.17101257 17.01436104 -2.34202515 17.01285294 -3.54852295 17.01129913 C-7.14581501 16.4036238 -8.31934325 15.35312183 -10.52832031 12.50793457 C-11.05957031 10.50793457 -11.05957031 10.50793457 -11.02832031 8.50793457 C-11.04378906 7.51793457 -11.04378906 7.51793457 -11.05957031 6.50793457 C-9.52954491 0.74783892 -5.33324865 0.00686849 0 0 Z " fill="#1A2C3C" transform="translate(34.5283203125,143.4920654296875)"/>
<path d="M0 0 C1.14404297 -0.0112793 2.28808594 -0.02255859 3.46679688 -0.03417969 C5.34334961 -0.0220343 5.34334961 -0.0220343 7.2578125 -0.00964355 C8.59180465 -0.01506511 9.9257908 -0.02218797 11.25976562 -0.03088379 C14.87966598 -0.04911656 18.49911024 -0.04205017 22.11901855 -0.02936745 C25.9074832 -0.01923938 29.69590882 -0.02863258 33.484375 -0.03491211 C39.84642548 -0.04218911 46.20829022 -0.03259956 52.5703125 -0.0135498 C59.92541387 0.00821921 67.28007173 0.00116786 74.63516235 -0.02085543 C80.95036617 -0.03900805 87.26543648 -0.04156848 93.58065796 -0.03110075 C97.35234853 -0.02486499 101.12383064 -0.02403225 104.89550781 -0.0372467 C108.44153603 -0.04880278 111.98699253 -0.04078487 115.53295898 -0.01766968 C117.45490737 -0.00985857 119.37690412 -0.02174065 121.29882812 -0.03417969 C123.01489258 -0.01726074 123.01489258 -0.01726074 124.765625 0 C125.75965332 0.0015081 126.75368164 0.0030162 127.77783203 0.00457001 C131.10045353 0.6466055 132.29109008 1.90497918 134.3828125 4.50793457 C134.9140625 6.50793457 134.9140625 6.50793457 134.8828125 8.50793457 C134.89828125 9.49793457 134.89828125 9.49793457 134.9140625 10.50793457 C134.13782429 13.43024313 132.6995018 14.60216083 130.3828125 16.50793457 C127.77783203 17.01129913 127.77783203 17.01129913 124.765625 17.01586914 C123.62158203 17.02714844 122.47753906 17.03842773 121.29882812 17.05004883 C120.04779297 17.0419519 118.79675781 17.03385498 117.5078125 17.0255127 C116.17382035 17.03093425 114.8398342 17.03805711 113.50585938 17.04675293 C109.88595902 17.0649857 106.26651476 17.05791931 102.64660645 17.04523659 C98.8581418 17.03510852 95.06971618 17.04450172 91.28125 17.05078125 C84.91919952 17.05805825 78.55733478 17.0484687 72.1953125 17.02941895 C64.84021113 17.00764993 57.48555327 17.01470128 50.13046265 17.03672457 C43.81525883 17.05487719 37.50018852 17.05743762 31.18496704 17.04696989 C27.41327647 17.04073413 23.64179436 17.03990139 19.87011719 17.05311584 C16.32408897 17.06467192 12.77863247 17.05665401 9.23266602 17.03353882 C7.31071763 17.02572771 5.38872088 17.03760979 3.46679688 17.05004883 C1.75073242 17.03312988 1.75073242 17.03312988 0 17.01586914 C-0.99402832 17.01436104 -1.98805664 17.01285294 -3.01220703 17.01129913 C-6.33482853 16.36926364 -7.52546508 15.11088996 -9.6171875 12.50793457 C-10.1484375 10.50793457 -10.1484375 10.50793457 -10.1171875 8.50793457 C-10.13265625 7.51793457 -10.13265625 7.51793457 -10.1484375 6.50793457 C-8.74861472 1.23801353 -4.99267277 0.0075747 0 0 Z " fill="#1A2C3C" transform="translate(105.6171875,199.4920654296875)"/>
<path d="M0 0 C18.72460964 0.61899536 37.15448939 3.08403751 55 9 C55.74282227 9.24089355 56.48564453 9.48178711 57.25097656 9.72998047 C66.61487833 12.78456528 75.75873823 16.14109262 84.6875 20.3125 C85.41235596 20.64991211 86.13721191 20.98732422 86.8840332 21.33496094 C91.86967464 23.73934927 91.86967464 23.73934927 93 26 C91.73657227 28.61376953 91.73657227 28.61376953 89.81640625 31.8828125 C89.48205063 32.45707977 89.14769501 33.03134705 88.8032074 33.62301636 C87.73045365 35.46150925 86.64666135 37.29321555 85.5625 39.125 C84.83455164 40.36805956 84.10732842 41.61154407 83.38085938 42.85546875 C81.59563672 45.90862693 79.80045557 48.95579415 78 52 C74.46100824 51.48910466 71.35862319 50.92740593 68.1328125 49.37109375 C67.47539062 49.05849609 66.81796875 48.74589844 66.140625 48.42382812 C65.47546875 48.09833984 64.8103125 47.77285156 64.125 47.4375 C63.43664062 47.10814453 62.74828125 46.77878906 62.0390625 46.43945312 C60.3561267 45.63304639 58.67759707 44.81745506 57 44 C57.04640625 42.69804687 57.0928125 41.39609375 57.140625 40.0546875 C57.17815847 38.32814804 57.21455693 36.60158364 57.25 34.875 C57.28351563 34.0190625 57.31703125 33.163125 57.3515625 32.28125 C57.43810861 26.65575305 56.80728724 23.43836764 53 19 C47.84159706 15.22555883 42.15111205 15.11230307 36 16 C31.42915166 17.4859602 29.50900056 20.0657012 27.2421875 24.2265625 C25.7309079 27.45296872 24.32217044 30.69215233 23 34 C14.90210668 34.2792377 8.34221217 33.1917446 0 32 C0 21.44 0 10.88 0 0 Z " fill="#4F803E" transform="translate(264,264)"/>
<path d="M0 0 C0.66 0 1.32 0 2 0 C-1.7415267 23.36532523 -5.6213521 46.70376111 -9.63021851 70.0246582 C-11.24918018 79.44302868 -12.8563099 88.86341292 -14.46340942 98.28381348 C-15.21350005 102.68016056 -15.9641853 107.07640609 -16.71484375 111.47265625 C-16.96606743 112.94409129 -17.21728846 114.41552678 -17.46850586 115.88696289 C-17.73159546 117.42791626 -17.73159546 117.42791626 -18 119 C-21.75219433 118.39964891 -25.26383973 117.68398697 -28.875 116.5 C-33.27341137 115.13382677 -37.41905648 114.42416144 -42 114 C-41.39332688 109.5922818 -40.29809652 105.72863722 -38.72192383 101.57202148 C-38.49042665 100.95693316 -38.25892946 100.34184484 -38.02041721 99.70811749 C-37.25451623 97.67708985 -36.48081339 95.64913047 -35.70703125 93.62109375 C-35.16257186 92.18197607 -34.61860612 90.74267153 -34.07510376 89.30319214 C-32.62577106 85.46865413 -31.16974887 81.63668943 -29.71235275 77.80521011 C-28.21524583 73.86599317 -26.72421387 69.92447871 -25.23266602 65.9831543 C-22.88965894 59.79390443 -20.54333981 53.60592156 -18.19433594 47.41894531 C-15.51963157 40.37359012 -12.85397297 33.32486487 -10.1953125 26.2734375 C-9.53542581 24.52416033 -8.87551516 22.7748922 -8.21557617 21.02563477 C-7.33530593 18.69233374 -6.45504621 16.35902891 -5.57510376 14.02560425 C-4.79987234 11.97107666 -4.02323822 9.91708582 -3.24609375 7.86328125 C-2.83029053 6.76282471 -2.4144873 5.66236816 -1.98608398 4.52856445 C-1 2 -1 2 0 0 Z " fill="#B4BFD1" transform="translate(305,295)"/>
<path d="M0 0 C1.26811523 -0.01260864 2.53623047 -0.02521729 3.84277344 -0.03820801 C5.22331295 -0.03104817 6.60384739 -0.02284418 7.984375 -0.01367188 C9.40397406 -0.0163675 10.82357131 -0.02025051 12.24316406 -0.02526855 C15.21567394 -0.03116045 18.18770241 -0.02261142 21.16015625 -0.00390625 C24.96696287 0.01888413 28.77264149 0.00575925 32.57940674 -0.01819611 C35.51001456 -0.03266301 38.44035574 -0.02804423 41.37097168 -0.01768494 C42.77437474 -0.01502007 44.17780215 -0.01827905 45.58117676 -0.02760315 C47.54369635 -0.03778128 49.50630102 -0.01951228 51.46875 0 C52.58475586 0.00318237 53.70076172 0.00636475 54.85058594 0.00964355 C58.37643133 0.63066636 59.55273304 1.73650375 61.734375 4.51757812 C62.265625 6.51757812 62.265625 6.51757812 62.234375 8.51757812 C62.24984375 9.50757812 62.24984375 9.50757812 62.265625 10.51757812 C61.48338263 13.46249057 60.08885796 14.61339613 57.734375 16.51757812 C54.85058594 17.0255127 54.85058594 17.0255127 51.46875 17.03515625 C50.20063477 17.04776489 48.93251953 17.06037354 47.62597656 17.07336426 C46.24543705 17.06620442 44.86490261 17.05800043 43.484375 17.04882812 C42.06477594 17.05152375 40.64517869 17.05540676 39.22558594 17.0604248 C36.25307606 17.0663167 33.28104759 17.05776767 30.30859375 17.0390625 C26.50178713 17.01627212 22.69610851 17.029397 18.88934326 17.05335236 C15.95873544 17.06781926 13.02839426 17.06320048 10.09777832 17.05284119 C8.69437526 17.05017632 7.29094785 17.0534353 5.88757324 17.0627594 C3.92505365 17.07293753 1.96244898 17.05466853 0 17.03515625 C-1.11600586 17.03197388 -2.23201172 17.0287915 -3.38183594 17.0255127 C-6.90768133 16.40448989 -8.08398304 15.2986525 -10.265625 12.51757812 C-10.796875 10.51757812 -10.796875 10.51757812 -10.765625 8.51757812 C-10.78109375 7.52757813 -10.78109375 7.52757813 -10.796875 6.51757812 C-9.30398497 0.89728626 -5.23640274 0.01493199 0 0 Z " fill="#1A2C3C" transform="translate(34.265625,87.482421875)"/>
<path d="M0 0 C1.05026367 -0.0038269 2.10052734 -0.00765381 3.18261719 -0.01159668 C5.40170247 -0.01431696 7.62081974 -0.00694777 9.83984375 0.00976562 C13.23770595 0.03117255 16.63345361 0.00996675 20.03125 -0.015625 C22.18750467 -0.01298175 24.34375802 -0.00785682 26.5 0 C27.51674805 -0.00809692 28.53349609 -0.01619385 29.58105469 -0.02453613 C36.61077417 0.06898232 36.61077417 0.06898232 39.88867188 2.43945312 C41.35641689 4.69476864 41.79171277 5.86163257 41.75 8.53125 C41.7603125 9.19125 41.770625 9.85125 41.78125 10.53125 C40.9489357 13.66466854 39.90683918 14.60990886 37.25 16.53125 C33.67231501 17.14709573 30.12279111 17.09135028 26.5 17.0625 C24.92460449 17.06824036 24.92460449 17.06824036 23.31738281 17.07409668 C21.09829753 17.07681696 18.87918026 17.06944777 16.66015625 17.05273438 C13.26229405 17.03132745 9.86654639 17.05253325 6.46875 17.078125 C4.31249533 17.07548175 2.15624198 17.07035682 0 17.0625 C-1.01674805 17.07059692 -2.03349609 17.07869385 -3.08105469 17.08703613 C-10.11077417 16.99351768 -10.11077417 16.99351768 -13.38867188 14.62304688 C-14.85641689 12.36773136 -15.29171277 11.20086743 -15.25 8.53125 C-15.26546875 7.54125 -15.26546875 7.54125 -15.28125 6.53125 C-13.27705847 -1.01394163 -6.37452488 -0.05076385 0 0 Z " fill="#1A2C3C" transform="translate(38.75,199.46875)"/>
</svg>
